 <svg viewBox="0 0 1200 1200" version="1.1">
            <g
              id="root"
              stroke="none"
              fill="none"
              stroke-width="1"
              fill-rule="evenodd"
            >
              <rect
                id="background.accent"
                x="0"
                y="0"
                width="1200"
                height="1200"
                fill="#2D327D"
              ></rect>
              <g id="group-header" transform="translate(444, 500)">
                <rect
                  id="rectangle-header"
                  x="0"
                  y="0"
                  width="84"
                  height="120"
                ></rect>
                <text
                  id="headerText.secondary"
                  font-size="65.75785524201898"
                  data-text-alignment="L"
                  fill="#FFFFFF"
                  font-family="Alfa Slab One"
                  font-weight="400"
                  font-style="normal"
                  letter-spacing="0"
                >
                  <tspan y="118" x="0">
                    Task Management
                  </tspan>
                </text>
              </g>
              <svg
                xmlns="http://www.w3.org/2000/svg"
                viewBox="0 0 26 26"
                version="1.1"
                fill="#069CAF"
                id="icon.primary"
                x="100"
                y="440"
                width="320"
                height="320"
              >
                <g id="surface1" fill="#069CAF">
                  <path
                    d="M 10.1875 0.0625 C 10.125 0.0664063 10.0625 0.078125 10 0.09375 C 9.652344 0.164063 9.367188 0.414063 9.25 0.75 L 4.4375 13.9375 C 4.289063 14.277344 4.34375 14.671875 4.578125 14.960938 C 4.808594 15.25 5.179688 15.386719 5.546875 15.316406 C 5.910156 15.246094 6.203125 14.980469 6.3125 14.625 L 10.84375 2.21875 L 23.625 4.78125 C 23.296875 5.8125 21.371094 11.972656 19.125 17.90625 C 18.175781 20.414063 17.402344 22.027344 16.625 22.875 C 16.109375 23.4375 15.59375 23.726563 14.875 23.84375 C 11.3125 24.34375 11.75 19.8125 11.75 19.8125 L 0.375 15.21875 C -0.808594 20.34375 3.125 21.5625 3.125 21.5625 L 11.46875 25.34375 C 11.46875 25.34375 12.269531 25.726563 13.1875 25.875 C 13.207031 25.875 13.230469 25.875 13.25 25.875 C 13.535156 25.917969 13.808594 25.964844 14.09375 25.9375 C 14.125 25.929688 14.15625 25.914063 14.1875 25.90625 C 15.765625 25.855469 17.089844 25.3125 18.09375 24.21875 C 19.242188 22.96875 20.03125 21.1875 21 18.625 C 23.460938 12.125 25.90625 4.3125 25.90625 4.3125 C 25.992188 4.042969 25.957031 3.75 25.816406 3.503906 C 25.671875 3.261719 25.433594 3.089844 25.15625 3.03125 L 10.375 0.09375 C 10.3125 0.078125 10.25 0.0664063 10.1875 0.0625 Z M 11.65625 5.59375 C 11.125 5.640625 10.722656 6.089844 10.738281 6.625 C 10.757813 7.15625 11.1875 7.582031 11.71875 7.59375 C 11.785156 7.609375 11.84375 7.617188 11.875 7.625 C 12.417969 7.738281 12.949219 7.386719 13.0625 6.84375 C 13.175781 6.300781 12.824219 5.769531 12.28125 5.65625 C 12.214844 5.640625 12.1875 5.632813 12.15625 5.625 C 12.054688 5.597656 11.949219 5.585938 11.84375 5.59375 C 11.78125 5.585938 11.71875 5.585938 11.65625 5.59375 Z M 14.90625 6.53125 C 14.417969 6.570313 14.027344 6.960938 13.988281 7.449219 C 13.949219 7.9375 14.273438 8.382813 14.75 8.5 L 19.125 9.71875 C 19.660156 9.867188 20.210938 9.550781 20.359375 9.015625 C 20.507813 8.480469 20.191406 7.929688 19.65625 7.78125 L 15.28125 6.59375 C 15.191406 6.558594 15.097656 6.539063 15 6.53125 C 14.96875 6.53125 14.9375 6.53125 14.90625 6.53125 Z M 10.1875 9.75 C 9.710938 9.828125 9.355469 10.238281 9.347656 10.722656 C 9.339844 11.207031 9.679688 11.625 10.15625 11.71875 C 10.222656 11.734375 10.28125 11.742188 10.3125 11.75 C 10.679688 11.882813 11.09375 11.792969 11.367188 11.511719 C 11.644531 11.234375 11.730469 10.820313 11.589844 10.453125 C 11.449219 10.089844 11.109375 9.835938 10.71875 9.8125 C 10.652344 9.796875 10.625 9.789063 10.59375 9.78125 C 10.460938 9.742188 10.324219 9.734375 10.1875 9.75 Z M 13.09375 10.65625 C 12.636719 10.730469 12.289063 11.105469 12.253906 11.5625 C 12.214844 12.023438 12.5 12.449219 12.9375 12.59375 L 17.3125 14.03125 C 17.839844 14.203125 18.40625 13.917969 18.578125 13.390625 C 18.75 12.863281 18.464844 12.296875 17.9375 12.125 L 13.5625 10.71875 C 13.414063 10.660156 13.253906 10.640625 13.09375 10.65625 Z M 8.59375 13.59375 C 8.117188 13.671875 7.761719 14.082031 7.753906 14.566406 C 7.746094 15.050781 8.085938 15.46875 8.5625 15.5625 C 8.628906 15.578125 8.6875 15.585938 8.71875 15.59375 C 9.082031 15.722656 9.488281 15.628906 9.761719 15.359375 C 10.03125 15.085938 10.125 14.679688 9.996094 14.316406 C 9.867188 13.953125 9.539063 13.695313 9.15625 13.65625 C 9.089844 13.640625 9.03125 13.632813 9 13.625 C 8.867188 13.585938 8.730469 13.578125 8.59375 13.59375 Z M 11.4375 14.6875 C 10.984375 14.769531 10.648438 15.148438 10.617188 15.605469 C 10.585938 16.066406 10.875 16.484375 11.3125 16.625 L 15.65625 18.0625 C 16.183594 18.234375 16.75 17.949219 16.921875 17.421875 C 17.09375 16.894531 16.808594 16.328125 16.28125 16.15625 L 11.9375 14.75 C 11.777344 14.6875 11.605469 14.664063 11.4375 14.6875 Z "
                    fill="#069CAF"
                  ></path>
                </g>
              </svg>
            </g>
          </svg>